<svg width="184" height="326" viewBox="0 0 184 326" fill="none" xmlns="http://www.w3.org/2000/svg">
<g clip-path="url(#clip0_21_25)">
<path d="M162.231 205.224C154.98 190.334 130.317 182.122 123.786 180.169C123.733 179.922 123.78 179.74 123.727 179.493L123.702 178.981C122.224 156.129 119.378 130.126 114.149 105.843C109.504 84.2753 101.85 66.7155 93.8236 53.0258L93.9059 53.0081L93.7527 52.6965C78.755 27.4155 62.1507 15.0563 60.4155 13.7934C60.4155 13.7934 60.4155 13.7934 60.3978 13.7111C60.3978 13.7111 60.3801 13.6287 60.2979 13.6465C60.2979 13.6465 60.2801 13.5641 60.1978 13.5819L59.8979 13.388L59.6398 13.7882C59.6398 13.7882 59.6398 13.7882 59.5752 13.8882L59.5108 13.9882L59.4463 14.0882C57.8863 16.836 47.9651 35.5105 45.0204 64.9999L45.009 65.3469L45.0913 65.3292C43.5874 80.7267 44.0264 99.1512 48.4936 119.895C53.7232 144.179 61.8329 169.048 69.8094 190.501L69.9979 190.977C70.0335 191.142 70.1512 191.288 70.1868 191.454C65.3962 195.586 45.7598 213.509 45.2508 230.33C44.5908 253.642 70.5975 295.674 80.3893 311.568C81.5727 313.466 82.5209 315.072 83.198 316.218C84.0105 317.592 85.6215 318.28 87.1843 317.943C88.2536 317.713 89.152 317.089 89.6328 316.124C90.1135 315.159 90.2298 314.1 89.9171 313.048C85.7774 301.019 72.619 260.699 78.3738 247.056C80.9407 240.991 84.0378 236.189 86.8897 232.647C92.0987 244.445 95.7213 251.676 95.8566 251.904L96.0099 252.216L125.045 245.963L125.056 245.616C125.085 245.352 125.346 237.371 125.337 224.539C129.394 226.594 134.093 229.63 138.847 234.119C149.707 244.184 154.311 286.346 155.49 299.013C155.556 300.119 156.098 301.035 157.015 301.699C157.85 302.38 159.008 302.562 159.995 302.349C161.558 302.013 162.743 300.724 162.918 299.136C163.064 297.812 163.267 295.96 163.564 293.742C166.028 275.21 172.429 226.198 162.231 205.224ZM159.965 301.408C159.941 290.905 155.817 247.778 151.553 229.574C147.394 211.865 126.81 208.2 125.024 207.897C124.789 198.817 124.409 189.854 123.881 181.01C130.695 183.075 154.599 191.364 161.526 205.548C171.588 226.293 165.234 275.122 162.835 293.555C162.538 295.772 162.335 297.625 162.189 298.948C162.026 300.189 161.116 301.16 159.965 301.408ZM124.473 224.122C124.544 230.05 124.486 234.973 124.407 238.607C123.564 240.684 121.317 243.838 114.835 244.114C106.82 244.462 103.554 231.297 103.005 228.745L124.473 224.122C124.455 224.04 124.455 224.04 124.473 224.122ZM96.4906 251.251C95.7425 249.776 92.3376 242.757 87.6059 231.976L88.9219 231.692L97.2308 251.092L96.4906 251.251ZM83.885 315.811C83.2078 314.665 82.1776 313.078 81.0764 311.162C71.3024 295.35 45.4133 253.465 46.0443 230.417C46.4662 214.392 65.3976 196.792 70.4816 192.423C73.6589 200.783 77.0186 209.19 80.4605 217.579L80.2783 217.533C80.2783 217.533 61.2816 229.634 64.9412 248.226C68.5475 266.571 82.6235 307.555 86.8426 317.155C85.7733 317.386 84.5445 316.875 83.885 315.811ZM57.2793 20.4121C54.0219 28.8658 49.0925 44.7425 49.2025 63.2379C51.1361 63.4244 54.1745 63.5454 57.5064 63.4307C55.5791 43.6902 58.9839 20.7341 59.7767 15.223C59.9057 15.0229 60.017 14.7406 60.0816 14.6405C62.6519 16.5849 78.4274 28.692 92.748 52.8268C92.748 52.8268 92.748 52.8268 92.6657 52.8445C92.1609 53.2977 91.5738 53.7687 91.0689 54.2219C90.9158 53.9104 90.7803 53.6812 90.6272 53.3696C89.95 52.2234 89.1906 51.0949 88.5134 49.9487C87.1768 47.7386 85.7934 45.7109 84.5277 43.8301C83.1797 41.9669 81.9672 40.3331 80.7901 38.8639C79.6953 37.377 78.5892 36.2371 77.7652 35.2086C75.9705 33.2694 74.8821 32.2118 74.8821 32.2118C74.8821 32.2118 75.1175 32.5056 75.5707 33.011C76.0237 33.5164 76.6477 34.4157 77.3894 35.4618C78.1311 36.508 79.0259 37.8657 80.0385 39.3704C80.5448 40.1226 81.0688 40.9573 81.5928 41.7919C82.1168 42.6266 82.6585 43.5435 83.3003 44.5251C84.4015 46.4413 85.7026 48.4867 86.8925 50.8146C87.4874 51.9786 88.1468 53.0424 88.7595 54.2886C88.9303 54.6825 89.1835 55.0586 89.3544 55.4526C83.5592 59.7152 77.0513 62.6672 69.7308 64.2436C60.4364 66.2452 51.6971 65.6293 45.9075 64.7228C45.9075 64.7228 45.9075 64.7228 45.8252 64.7405C47.9041 43.6203 53.6978 28.1603 57.2439 20.2475C57.3438 20.3121 57.2793 20.4121 57.2793 20.4121ZM45.9202 65.5813C46.8958 65.7157 47.9716 65.9147 49.194 65.9961C48.7211 68.5958 46.2415 83.8589 49.8841 107.968C53.4735 131.829 69.3322 179.493 72.44 188.728L86.9164 185.611C82.0756 181.916 69.0576 171.024 66.5404 159.335C63.456 145.012 65.739 137.629 65.739 137.629C62.6724 133.38 57.6569 121.281 53.5089 102.019C49.633 84.4206 56.5138 68.8126 57.6334 66.4182C61.4943 66.3619 65.631 65.9879 69.9904 65.0491C77.3931 63.4549 83.9832 60.4853 89.8607 56.2048C90.1669 56.8279 90.4556 57.3688 90.7619 57.9919C91.4568 59.2204 91.9872 60.4844 92.6176 61.8129C93.2479 63.1414 93.8606 64.3876 94.4909 65.7162C95.6695 68.391 96.8656 71.1481 97.9796 73.923C98.5278 75.2693 99.0936 76.6978 99.6417 78.044C100.19 79.3903 100.756 80.8189 101.222 82.1829C102.171 84.9931 103.185 87.7034 104.099 90.349C104.931 93.0123 105.745 95.5934 106.523 98.0098C106.954 99.2091 107.22 100.444 107.55 101.579C107.881 102.713 108.211 103.848 108.524 104.9C109.167 107.088 109.757 109.028 110.147 110.838C110.619 112.632 111.038 114.179 111.304 115.413C112.018 117.929 112.419 119.394 112.419 119.394C112.419 119.394 112.183 117.894 111.797 115.307C111.596 113.973 111.342 112.391 111.051 110.644C110.856 109.738 110.826 108.798 110.513 107.745C110.301 106.758 110.07 105.687 109.84 104.617C109.361 102.395 108.847 100.007 108.215 97.4732C107.501 94.9568 106.852 92.3403 106.084 89.5769C105.701 88.1953 105.235 86.8313 104.769 85.4673C104.303 84.1033 103.82 82.657 103.354 81.293C102.87 79.8468 102.322 78.5005 101.756 77.0719C101.19 75.6433 100.724 74.2793 100.159 72.8507C98.9624 70.0937 97.7661 67.3365 96.5699 64.5795C95.9396 63.2509 95.2269 61.94 94.5965 60.6115C93.9662 59.2829 93.2713 58.0545 92.5764 56.8259C92.1701 56.1381 91.846 55.4328 91.4397 54.745C91.9446 54.2917 92.5317 53.8208 93.0365 53.3675C101.045 66.975 108.582 84.3878 113.191 105.79C118.42 130.074 121.266 156.077 122.744 178.929L70.5966 190.159C62.5378 168.725 54.4279 143.855 49.1985 119.571C44.8198 99.2387 44.3986 80.8965 45.9202 65.5813ZM123.866 223.306L123.126 223.465L88.3334 230.958L87.5932 231.117L87.2641 231.188C87.2464 231.106 87.2464 231.106 87.2285 231.023C85.249 226.626 83.3513 222.211 81.5362 217.778C77.8767 209.178 74.4461 200.441 71.2155 191.835C71.1801 191.67 71.0623 191.523 71.0446 191.441C71.0269 191.359 71.0092 191.277 71.0092 191.277L71.4205 191.188L71.585 191.153L71.9963 191.064L73.1478 190.816L74.6388 194.543L75.2224 196.054L75.8061 197.565L83.7874 218.241L88.2321 229.688L88.561 229.617L89.219 229.475L89.9594 229.316L102.379 226.641L88.858 187.433L91.819 186.795L105.341 226.003L108.302 225.366L94.6979 186.175L121.841 180.33L122.252 180.241L122.417 180.206L123.075 180.064C123.093 180.146 123.128 180.311 123.063 180.41C123.099 180.576 123.052 180.758 123.07 180.84C123.651 189.931 124.002 199.158 124.29 208.485C124.395 213.372 124.501 218.259 124.542 223.246L123.884 223.388L123.866 223.306Z" fill="#FBFCFF"/>
<path d="M121.027 253.289C121.027 253.289 129.701 258.398 131.62 260.913C128.205 259.84 125.097 260.595 125.097 260.595C130.265 263.014 132.704 272.739 132.704 272.739C129.957 271.177 123.858 271.629 123.858 271.629C127.682 280.194 123.226 289.079 122.857 289.761C122.391 288.397 121.736 286.557 120.419 285.634C118.784 284.436 116.615 283.956 114.704 283.075C112.611 282.148 110.3 281.009 108.941 279.493C107.681 278.042 106.733 276.436 105.95 274.797C104.689 272.139 103.904 269.294 103.448 266.378C103.377 266.048 103.306 265.719 103.3 265.289C99.9947 268.326 96.6912 272.57 96.6912 272.57C96.6457 263.966 102.996 257.085 102.996 257.085C102.996 257.085 84.7965 267.293 95.7015 290.355C95.7015 290.355 95.7397 282.938 99.458 276.625C99.458 276.625 98.4095 289.341 107.769 292.838C117.111 296.253 116.864 296.306 119.594 303.384C122.223 310.397 126.456 312.07 126.456 312.07C126.456 312.07 123.327 304.733 128.179 298.09C133.113 291.428 133.196 281.419 129.287 276.059C129.287 276.059 134.677 276.707 136.721 281.004C136.721 281.004 138.331 270.493 131.594 263.589C131.594 263.589 136.095 263.309 138.977 265.1C138.977 265.1 135.711 256.328 121.027 253.289ZM120.281 298.584C120.317 298.749 120.335 298.831 120.335 298.831C120.335 298.831 120.317 298.749 120.199 298.602C120.081 298.455 119.946 298.226 119.811 297.996C119.44 297.474 118.951 296.804 118.116 296.122C117.698 295.781 117.281 295.441 116.781 295.118C116.281 294.795 115.699 294.49 115.099 294.102C114.517 293.796 113.77 293.526 113.106 293.238C112.741 293.145 112.441 292.951 112.077 292.857C111.712 292.764 111.33 292.588 110.966 292.494C110.219 292.224 109.472 291.954 108.726 291.684C107.979 291.414 107.297 291.044 106.615 290.674C106.315 290.48 106.015 290.287 105.697 290.011C105.58 289.864 105.479 289.799 105.362 289.652C105.244 289.506 105.144 289.44 105.026 289.294C104.573 288.788 104.22 288.347 103.949 287.889C103.325 286.99 103.066 286.185 102.842 285.544C102.718 284.967 102.647 284.638 102.647 284.638C102.647 284.638 102.8 284.949 103.171 285.473C103.542 285.996 104.03 286.666 104.801 287.447C105.136 287.805 105.572 288.229 106.072 288.552C106.172 288.617 106.289 288.763 106.389 288.827C106.489 288.893 106.689 289.022 106.789 289.086C107.071 289.198 107.289 289.409 107.589 289.603C108.171 289.909 108.836 290.196 109.565 290.384C110.311 290.654 111.04 290.841 111.787 291.111C112.151 291.205 112.533 291.381 112.915 291.557C113.28 291.651 113.662 291.827 114.044 292.003C114.791 292.273 115.473 292.643 116.073 293.03C117.355 293.788 118.326 294.699 119.032 295.58C119.738 296.461 120.08 297.25 120.204 297.826C120.193 298.173 120.246 298.419 120.281 298.584Z" fill="#FBFCFF"/>
<path d="M80.9626 116.004C92.6425 113.489 100.127 101.885 97.6101 90.196C95.0928 78.5069 83.4952 71.0128 71.8154 73.5281C60.1355 76.0433 52.6506 87.6468 55.1679 99.336C57.6029 111.043 69.2006 118.537 80.9626 116.004ZM71.9749 74.2689C83.2435 71.8422 94.3412 79.0133 96.7698 90.2908C99.1984 101.568 92.0361 112.671 80.7675 115.098C69.4989 117.525 58.4013 110.354 55.9727 99.0765C53.4619 87.8167 60.7063 76.6956 71.9749 74.2689Z" fill="#FBFCFF"/>
<path d="M79.8812 110.983C88.8468 109.052 94.5895 100.149 92.6573 91.1764C90.725 82.2037 81.8268 76.454 72.8613 78.3847C63.8958 80.3154 58.153 89.2182 60.0853 98.1908C62.0353 107.246 70.8335 112.931 79.8812 110.983ZM64.3496 86.4194C64.4609 86.137 64.6368 85.7546 64.9594 85.2545C65.2821 84.7544 65.6869 84.2364 66.1563 83.6186C66.708 82.983 67.3596 82.412 68.0935 81.8232C68.9096 81.2168 69.8258 80.675 70.8419 80.1978C71.3999 79.9915 71.9579 79.7852 72.516 79.5789C73.174 79.4372 73.7497 79.3132 74.3255 79.1892C74.9191 79.1475 75.5771 79.0058 76.2705 79.0287C76.6172 79.0402 76.964 79.0516 77.2285 79.0808C77.5753 79.0923 77.9219 79.1037 78.2041 79.2152C78.8976 79.2381 79.5443 79.4434 80.1733 79.5664C80.8199 79.7717 81.4666 79.977 82.1311 80.2645C83.3598 80.7752 84.5596 81.5504 85.5949 82.3611C86.6478 83.254 87.5363 84.1825 88.278 85.2287C88.4134 85.4579 88.6488 85.7518 88.7842 85.981C88.9374 86.2925 89.0728 86.5217 89.2083 86.7511C89.4969 87.2918 89.7032 87.8503 89.9918 88.3912C90.1982 88.9496 90.3223 89.5258 90.5109 90.0021C90.6172 90.496 90.7236 90.9899 90.73 91.4191C90.8604 92.4247 90.8732 93.2833 90.8038 94.1596C90.7165 94.9536 90.5938 95.583 90.4535 96.13C90.1727 97.2241 89.95 97.7889 89.95 97.7889C89.95 97.7889 89.9145 97.6243 89.9437 97.3595C89.9727 97.0949 89.8841 96.6833 89.8423 96.0894C89.8182 95.5778 89.6763 94.9192 89.599 94.1607C89.4572 93.5021 89.2622 92.5966 88.9382 91.8911C88.7673 91.4973 88.5787 91.0211 88.39 90.545C88.1369 90.1687 88.0483 89.7571 87.7774 89.2987C87.5243 88.9226 87.3357 88.4463 86.9826 88.0056C86.8471 87.7763 86.7117 87.5471 86.5117 87.4179C86.3763 87.1886 86.1763 87.0594 86.0408 86.8302C85.3523 86.031 84.517 85.3495 83.6818 84.6681C83.1819 84.3451 82.7642 84.0042 82.2821 83.7636C81.7822 83.4406 81.3177 83.2822 80.8355 83.0415C79.789 82.5777 78.7778 82.2787 77.7021 82.0797C76.6265 81.8806 75.5863 81.8462 74.4815 81.9119C73.9703 81.9358 73.3945 82.0598 72.9655 82.0661C72.3898 82.1901 71.9785 82.2786 71.485 82.3849C70.498 82.5975 69.6287 82.9569 68.8416 83.2987C67.2851 84.0646 66.011 84.9419 65.2126 85.6306C64.7723 85.9839 64.4787 86.2193 64.2674 86.4371C64.0561 86.655 63.9093 86.7727 63.9093 86.7727C63.9093 86.7727 64.2384 86.7019 64.3496 86.4194Z" fill="#FBFCFF"/>
<path d="M72.5067 76.7384C72.8247 76.6699 73.0269 76.3564 72.9584 76.0382C72.8899 75.72 72.5765 75.5175 72.2585 75.586C71.9405 75.6545 71.7383 75.968 71.8068 76.2862C71.8753 76.6044 72.1887 76.8068 72.5067 76.7384Z" fill="#FBFCFF"/>
<path d="M95.002 91.2744C95.331 91.2035 95.5246 90.9035 95.4537 90.5742C95.3828 90.2449 95.0829 90.0511 94.7538 90.1219C94.4248 90.1928 94.2313 90.4928 94.3022 90.8222C94.3731 91.1515 94.673 91.3452 95.002 91.2744Z" fill="#FBFCFF"/>
<path d="M80.5015 113.863C80.8195 113.795 81.0218 113.481 80.9533 113.163C80.8847 112.845 80.5715 112.643 80.2535 112.712C79.9355 112.78 79.7331 113.093 79.8017 113.411C79.8702 113.729 80.1835 113.932 80.5015 113.863Z" fill="#FBFCFF"/>
<path d="M57.6582 98.1105C57.3291 98.1814 57.1356 98.4815 57.2065 98.8108C57.2774 99.1401 57.5773 99.3339 57.9064 99.263C58.2353 99.1922 58.4289 98.8921 58.358 98.5628C58.2871 98.2335 57.9872 98.0397 57.6582 98.1105Z" fill="#FBFCFF"/>
<path d="M79.2705 76.5738C79.6173 76.5853 79.9285 76.4321 79.9399 76.0851C79.9512 75.7382 79.7981 75.4266 79.4513 75.4152C79.1046 75.4036 78.7933 75.5569 78.782 75.9038C78.6706 76.1862 78.9061 76.48 79.2705 76.5738Z" fill="#FBFCFF"/>
<path d="M94.4688 97.5909C94.4575 97.938 94.6106 98.2495 94.9574 98.261C95.3041 98.2724 95.6154 98.1193 95.6268 97.7723C95.638 97.4253 95.4849 97.1137 95.1381 97.1023C94.8737 97.0731 94.5802 97.3086 94.4688 97.5909Z" fill="#FBFCFF"/>
<path d="M73.4896 112.875C73.1429 112.864 72.8315 113.017 72.8203 113.364C72.8089 113.711 72.9622 114.023 73.3088 114.034C73.6555 114.046 73.9668 113.893 73.9782 113.545C73.9895 113.198 73.8365 112.888 73.4896 112.875Z" fill="#FBFCFF"/>
<path d="M58.1913 91.794C58.2026 91.447 58.0495 91.1355 57.7028 91.124C57.356 91.1125 57.0448 91.2657 57.0333 91.6127C57.022 91.9597 57.1752 92.2712 57.5219 92.2827C57.8864 92.3764 58.18 92.141 58.1913 91.794Z" fill="#FBFCFF"/>
<path d="M86.4307 78.6495C86.6244 78.3495 86.4712 78.0379 86.2534 77.8264C86.0358 77.6149 85.6423 77.7858 85.431 78.0035C85.2374 78.3036 85.3906 78.6152 85.6083 78.8267C85.9082 79.0205 86.2194 78.8673 86.4307 78.6495Z" fill="#FBFCFF"/>
<path d="M92.2375 104.015C92.0439 104.315 92.1971 104.626 92.4147 104.838C92.7147 105.032 93.026 104.879 93.2373 104.661C93.4308 104.361 93.2777 104.049 93.06 103.838C92.7601 103.644 92.4311 103.715 92.2375 104.015Z" fill="#FBFCFF"/>
<path d="M66.3294 110.8C66.1358 111.1 66.289 111.412 66.5067 111.623C66.8066 111.817 67.1179 111.664 67.3292 111.446C67.5228 111.146 67.3696 110.834 67.152 110.623C66.852 110.429 66.4408 110.518 66.3294 110.8Z" fill="#FBFCFF"/>
<path d="M60.5227 85.4348C60.7163 85.1347 60.5632 84.8231 60.3455 84.6115C60.1278 84.4 59.7342 84.5709 59.5229 84.7887C59.3294 85.0889 59.4825 85.4004 59.7002 85.6119C60.0001 85.8057 60.3292 85.7348 60.5227 85.4348Z" fill="#FBFCFF"/>
<path d="M91.8375 83.773C92.0487 83.5552 92.1424 83.1906 91.9247 82.9791C91.707 82.7676 91.3425 82.6738 91.1312 82.8915C90.9199 83.1093 90.8263 83.474 91.0439 83.6855C91.2617 83.8971 91.6084 83.9086 91.8375 83.773Z" fill="#FBFCFF"/>
<path d="M87.4484 109.353C87.2371 109.571 87.1434 109.935 87.3612 110.147C87.579 110.359 87.9433 110.452 88.1547 110.235C88.3659 110.016 88.4594 109.652 88.2419 109.44C88.0242 109.229 87.6774 109.217 87.4484 109.353Z" fill="#FBFCFF"/>
<path d="M60.8404 105.694C60.6291 105.912 60.5355 106.277 60.7532 106.488C60.9709 106.7 61.3354 106.794 61.5466 106.576C61.758 106.358 61.8515 105.993 61.6339 105.782C61.4984 105.553 61.134 105.459 60.8404 105.694Z" fill="#FBFCFF"/>
<path d="M65.2939 80.0143C65.5053 79.7965 65.5989 79.4319 65.3812 79.2204C65.1635 79.0088 64.799 78.9151 64.5877 79.1328C64.3764 79.3506 64.2828 79.7153 64.5005 79.9268C64.6359 80.156 65.0826 80.2321 65.2939 80.0143Z" fill="#FBFCFF"/>
<path d="M109.576 145.76C107.059 134.071 95.4609 126.577 83.7811 129.092C72.1013 131.607 64.6165 143.211 67.1337 154.9C69.6509 166.589 81.2486 174.084 92.9284 171.568C104.608 169.053 112.093 157.449 109.576 145.76ZM67.8739 154.741C65.4453 143.463 72.6075 132.36 83.8761 129.933C95.1447 127.506 106.242 134.678 108.671 145.955C111.1 157.233 103.937 168.336 92.6689 170.763C81.4825 173.172 70.3025 166.018 67.8739 154.741Z" fill="#FBFCFF"/>
<path d="M104.641 146.823C102.709 137.851 93.8105 132.101 84.8449 134.032C75.8794 135.963 70.1366 144.865 72.0688 153.837C74.001 162.81 82.8994 168.56 91.8648 166.63C100.83 164.699 106.573 155.795 104.641 146.823ZM83.6509 138.079C82.6639 138.292 81.7945 138.651 81.0073 138.992C79.4509 139.758 78.1768 140.636 77.3784 141.324C76.9381 141.678 76.6445 141.913 76.4331 142.13C76.2219 142.349 76.0751 142.466 76.0751 142.466C76.0751 142.466 76.1219 142.284 76.2509 142.084C76.3624 141.802 76.5381 141.419 76.8608 140.919C77.1834 140.419 77.5883 139.901 78.0578 139.283C78.6093 138.647 79.2609 138.076 79.9948 137.487C80.8109 136.881 81.7269 136.339 82.7432 135.862C83.3013 135.656 83.8592 135.449 84.4172 135.243C85.0752 135.101 85.651 134.977 86.2268 134.853C86.8202 134.812 87.4782 134.67 88.1718 134.693C88.5185 134.705 88.8653 134.716 89.1297 134.745C89.4766 134.757 89.8233 134.768 90.1054 134.879C90.799 134.903 91.4456 135.107 92.0745 135.231C92.7213 135.436 93.3679 135.642 94.0323 135.929C95.2612 136.44 96.4609 137.215 97.496 138.025C98.549 138.918 99.4376 139.847 100.179 140.893C100.315 141.122 100.55 141.416 100.686 141.646C100.839 141.957 100.974 142.186 101.11 142.416C101.398 142.956 101.605 143.515 101.893 144.055C102.1 144.615 102.224 145.19 102.412 145.666C102.518 146.16 102.625 146.655 102.631 147.084C102.762 148.089 102.774 148.948 102.705 149.824C102.618 150.618 102.495 151.247 102.355 151.795C102.074 152.888 101.851 153.453 101.851 153.453C101.851 153.453 101.816 153.289 101.845 153.024C101.874 152.76 101.785 152.348 101.743 151.754C101.719 151.242 101.577 150.583 101.5 149.825C101.359 149.167 101.164 148.261 100.839 147.556C100.669 147.162 100.48 146.686 100.291 146.209C100.038 145.833 99.9495 145.421 99.6786 144.963C99.4256 144.587 99.2369 144.111 98.8839 143.67C98.7484 143.441 98.6128 143.211 98.413 143.082C98.2774 142.853 98.0775 142.724 97.9421 142.494C97.2536 141.695 96.4184 141.014 95.5831 140.332C95.0832 140.009 94.6655 139.669 94.1833 139.428C93.6835 139.105 93.2189 138.946 92.7369 138.706C91.6903 138.242 90.6791 137.943 89.6035 137.744C88.5278 137.545 87.4876 137.511 86.3829 137.577C85.8717 137.601 85.2959 137.725 84.8668 137.73C84.6379 137.866 84.1444 137.973 83.6509 138.079Z" fill="#FBFCFF"/>
<path d="M84.4902 132.385C84.8082 132.316 85.0106 132.004 84.942 131.685C84.8733 131.366 84.5602 131.165 84.2422 131.233C83.9242 131.302 83.7217 131.614 83.7904 131.933C83.859 132.252 84.1722 132.453 84.4902 132.385Z" fill="#FBFCFF"/>
<path d="M106.985 146.921C107.314 146.85 107.508 146.55 107.437 146.221C107.366 145.891 107.066 145.698 106.737 145.769C106.408 145.84 106.215 146.139 106.286 146.469C106.357 146.798 106.656 146.991 106.985 146.921Z" fill="#FBFCFF"/>
<path d="M92.9192 168.728C92.8482 168.398 92.5484 168.205 92.2194 168.276C91.8904 168.347 91.6966 168.646 91.7676 168.976C91.8385 169.305 92.1386 169.499 92.4676 169.428C92.7966 169.358 92.9901 169.057 92.9192 168.728Z" fill="#FBFCFF"/>
<path d="M69.6418 153.758C69.3128 153.828 69.1191 154.128 69.19 154.457C69.261 154.787 69.5608 154.98 69.8898 154.909C70.2188 154.838 70.4125 154.539 70.3415 154.209C70.2706 153.88 69.9708 153.687 69.6418 153.758Z" fill="#FBFCFF"/>
<path d="M91.2362 132.138C91.5832 132.15 91.8943 131.996 91.9056 131.649C91.9171 131.303 91.7639 130.991 91.4172 130.98C91.0703 130.968 90.7592 131.122 90.7477 131.468C90.6541 131.833 90.8896 132.127 91.2362 132.138Z" fill="#FBFCFF"/>
<path d="M106.452 153.237C106.441 153.585 106.594 153.896 106.941 153.908C107.288 153.919 107.599 153.766 107.61 153.419C107.622 153.072 107.469 152.761 107.122 152.749C106.84 152.637 106.546 152.873 106.452 153.237Z" fill="#FBFCFF"/>
<path d="M85.4732 168.523C85.1266 168.511 84.8152 168.664 84.8039 169.011C84.7923 169.358 84.9456 169.669 85.2924 169.682C85.6392 169.693 85.9503 169.539 85.9618 169.193C85.9731 168.846 85.8199 168.534 85.4732 168.523Z" fill="#FBFCFF"/>
<path d="M70.1749 147.441C70.1862 147.094 70.033 146.782 69.6864 146.771C69.3396 146.759 69.0284 146.912 69.017 147.26C69.0057 147.607 69.1587 147.917 69.5056 147.93C69.8523 147.941 70.1637 147.788 70.1749 147.441Z" fill="#FBFCFF"/>
<path d="M98.3965 134.214C98.5901 133.914 98.4368 133.602 98.2192 133.391C98.0015 133.179 97.6079 133.35 97.3968 133.568C97.2031 133.867 97.3562 134.179 97.574 134.391C97.8738 134.584 98.2028 134.514 98.3965 134.214Z" fill="#FBFCFF"/>
<path d="M104.203 159.579C104.01 159.88 104.163 160.191 104.38 160.402C104.681 160.596 104.992 160.443 105.203 160.225C105.397 159.926 105.244 159.614 105.026 159.402C104.726 159.209 104.397 159.28 104.203 159.579Z" fill="#FBFCFF"/>
<path d="M78.2953 166.364C78.1018 166.665 78.2547 166.976 78.4725 167.188C78.7725 167.382 79.0837 167.228 79.2951 167.01C79.4885 166.71 79.3355 166.399 79.1178 166.187C78.8178 165.993 78.4244 166.165 78.2953 166.364Z" fill="#FBFCFF"/>
<path d="M72.5063 141.081C72.6997 140.781 72.5468 140.47 72.329 140.258C72.029 140.064 71.7178 140.218 71.5064 140.435C71.313 140.736 71.4659 141.047 71.6837 141.259C71.9837 141.453 72.2949 141.299 72.5063 141.081Z" fill="#FBFCFF"/>
<path d="M103.803 139.338C104.015 139.119 104.108 138.755 103.891 138.543C103.673 138.332 103.308 138.238 103.097 138.456C102.886 138.674 102.792 139.039 103.01 139.25C103.245 139.544 103.592 139.555 103.803 139.338Z" fill="#FBFCFF"/>
<path d="M99.432 165C99.2207 165.217 99.1271 165.582 99.3447 165.793C99.5625 166.005 99.9268 166.098 100.138 165.881C100.35 165.664 100.443 165.299 100.225 165.087C100.008 164.876 99.6432 164.782 99.432 165Z" fill="#FBFCFF"/>
<path d="M72.8063 161.259C72.5949 161.476 72.5013 161.841 72.7191 162.053C72.9369 162.265 73.3012 162.358 73.5126 162.141C73.7239 161.922 73.8174 161.557 73.5999 161.346C73.4643 161.117 73.1177 161.106 72.8063 161.259Z" fill="#FBFCFF"/>
<path d="M77.2777 135.662C77.4889 135.443 77.5824 135.078 77.3649 134.867C77.1471 134.655 76.7827 134.562 76.5713 134.779C76.36 134.997 76.2664 135.362 76.4842 135.574C76.6197 135.803 77.0486 135.797 77.2777 135.662Z" fill="#FBFCFF"/>
<path d="M71.292 68.3004C71.6211 68.2295 71.8146 67.9293 71.7437 67.6001C71.6728 67.2708 71.3729 67.077 71.0438 67.1479C70.7148 67.2187 70.5212 67.5188 70.5921 67.8481C70.663 68.1773 70.9629 68.3712 71.292 68.3004Z" fill="#FBFCFF"/>
<path d="M87.7928 62.5934C88.1219 62.5226 88.3155 62.2225 88.2445 61.8933C88.1736 61.564 87.8737 61.3702 87.5447 61.4411C87.2157 61.5119 87.0221 61.812 87.093 62.1413C87.1639 62.4705 87.4639 62.6643 87.7928 62.5934Z" fill="#FBFCFF"/>
<path d="M82.7364 65.4912C83.0654 65.4203 83.2591 65.1202 83.1882 64.791C83.1172 64.4617 82.8172 64.268 82.4883 64.3388C82.1592 64.4097 81.9657 64.7097 82.0366 65.039C82.1075 65.3682 82.4074 65.562 82.7364 65.4912Z" fill="#FBFCFF"/>
<path d="M76.932 66.9135C77.261 66.8427 77.4546 66.5425 77.3837 66.2132C77.3128 65.884 77.0128 65.6902 76.6838 65.7611C76.3548 65.8319 76.1612 66.132 76.2321 66.4612C76.303 66.7905 76.6853 66.9667 76.932 66.9135Z" fill="#FBFCFF"/>
<path d="M59.2881 70.1101C59.6061 70.0417 59.8083 69.7282 59.7398 69.41C59.6713 69.0917 59.3579 68.8892 59.0399 68.9577C58.7219 69.0261 58.5197 69.3397 58.5882 69.658C58.6567 69.9762 58.9701 70.1786 59.2881 70.1101Z" fill="#FBFCFF"/>
<path d="M65.7456 69.3225C66.0747 69.2517 66.2682 68.9515 66.1973 68.6222C66.1264 68.293 65.8265 68.0992 65.4975 68.17C65.1685 68.2409 64.9749 68.541 65.0458 68.8702C65.1167 69.1995 65.4167 69.3934 65.7456 69.3225Z" fill="#FBFCFF"/>
<path d="M47.9168 70.0611C48.2348 69.9926 48.437 69.6791 48.3685 69.3609C48.2999 69.0426 47.9866 68.8401 47.6686 68.9086C47.3506 68.9771 47.1483 69.2906 47.2169 69.6089C47.2854 69.9271 47.5988 70.1296 47.9168 70.0611Z" fill="#FBFCFF"/>
</g>
<defs>
<clipPath id="clip0_21_25">
<rect width="122" height="306" fill="white" transform="translate(0.15686 26.2533) rotate(-12.1531)"/>
</clipPath>
</defs>
</svg>
