<svg width="361" height="325" viewBox="0 0 361 325" fill="none" xmlns="http://www.w3.org/2000/svg">
<g clip-path="url(#clip0_21_127)">
<path d="M326.26 107.347L218.348 102.03L170.166 48.95C169.601 48.3901 156.527 34.0632 150.61 35.4516C144.445 36.8979 139.272 55.5061 139.097 56.2395L119.488 125.312L25.4287 177.929L29.1814 193.924L102.169 186.405L99.1217 197.072L142.931 186.794L146.241 200.901L228.024 181.713L224.714 167.605L268.606 157.307L261.133 149.109L330.012 123.342L326.26 107.347ZM329.017 122.796L260.53 148.384L221.249 105.158L262.615 141.751L273.132 138.158L280.988 105.853L284.754 106.008L277.311 136.746L282.929 134.821L289.418 106.298L297.133 106.652L291.841 131.778L323.495 121.064L325.625 108.707L328.935 122.815L329.017 122.796ZM224.522 166.785L143.314 185.838L146.345 172.145L146.395 171.615L246.918 148.03L247.411 147.914L247.904 147.799L256.781 145.716L259.581 148.78L259.924 149.132L260.267 149.484L267.036 156.896L224.541 166.866L224.522 166.785ZM227.01 181.085L224.216 181.741L221.098 168.454L223.892 167.798L227.01 181.085ZM26.5586 179.048L33.9623 189.167L67.0782 184.686L51.1634 164.535L57.9155 160.787L76.4132 183.447L82.3017 182.671L61.9639 158.453L65.2674 156.639L86.7349 181.977L97.7525 180.517L117.954 130.604L102.387 185.488L29.83 192.992L26.5586 179.048ZM120.435 124.917L137.798 63.6405C138.431 63.7515 139.862 63.935 141.887 64.0657C141.755 64.6158 141.455 65.5516 141.023 67.0376C140.903 66.8927 140.7 66.7673 140.452 66.8253C140.124 66.9023 139.935 67.2064 140.012 67.5345C140.089 67.8626 140.394 68.0507 140.722 67.9737L140.805 67.9543C138.214 76.8699 131.741 98.8117 124.187 124.642C124.143 124.826 124.08 124.927 124.037 125.11C123.993 125.293 123.93 125.395 123.886 125.578C118.985 142.392 113.653 160.691 108.622 178.054L114.375 176.705L114.868 176.589L115.361 176.473L146.842 169.087L151.37 138.861C136.377 120.051 147.309 99.7458 147.309 99.7458L147.721 64.1681C150.631 64.0045 153.932 63.6626 157.467 62.8332C162.07 61.7532 167.012 59.9015 171.951 56.9254C173.882 59.2417 176.415 62.2819 179.433 65.9009C181.122 67.9276 183.034 70.1618 185.066 72.5408C187.079 74.8377 189.233 77.3614 191.386 79.885C193.621 82.3895 195.895 85.058 198.231 87.6253C200.587 90.2744 202.944 92.9235 205.318 95.6548C207.757 98.2847 210.113 100.934 212.468 103.583C212.691 103.791 212.83 104.018 213.053 104.225C213.174 104.37 213.275 104.432 213.294 104.514C213.414 104.659 213.516 104.722 213.637 104.867C215.612 106.999 217.586 109.132 219.46 111.202C223.993 116.11 228.285 120.728 232.056 124.604C239.433 132.391 244.6 137.41 244.6 137.41C244.6 137.41 240.159 131.789 233.198 123.556C229.718 119.44 225.652 114.682 221.182 109.673C219.512 107.729 217.739 105.721 215.968 103.714C215.848 103.569 215.746 103.507 215.707 103.343C215.606 103.28 215.485 103.135 215.466 103.053C215.104 102.619 214.761 102.266 214.419 101.914C212.062 99.2649 209.707 96.6156 207.331 93.8845C204.893 91.2546 202.537 88.6055 200.181 85.9561C197.825 83.307 195.426 80.841 193.19 78.3367C190.955 75.8323 188.676 73.511 186.581 71.2335C184.485 68.9559 182.429 66.8422 180.594 64.9361C178.62 62.8032 176.804 60.9791 175.191 59.2806C175.254 59.1793 175.298 58.9958 175.279 58.9139C175.202 58.5858 174.897 58.3977 174.569 58.4747C174.486 58.4941 174.486 58.4941 174.486 58.4941C173.801 57.7894 173.217 57.1477 172.652 56.5878C173.333 56.1684 174.079 55.6473 174.741 55.1458L217.545 102.306L217.888 102.658L218.231 103.01L256.462 145.098L247.504 147.2L247.01 147.316L246.353 147.47L114.842 178.326L114.349 178.441L113.856 178.557L104.732 180.698L120.255 125.997L120.406 125.529L120.435 124.917ZM149.999 36.5468C148.455 38.4666 144.47 44.7671 142.271 61.639C143.765 61.7212 145.587 61.7262 147.637 61.5916C147.487 48.3864 149.866 38.5684 150.555 36.3298C150.637 36.3104 150.719 36.2912 150.802 36.2718C156.227 34.9991 169.402 49.3888 169.605 49.5142L174.037 54.3591C173.292 54.88 172.61 55.2997 171.865 55.8206C169.465 53.3547 167.992 51.883 167.992 51.883C167.992 51.883 169.218 53.4127 171.41 56.1004C156.633 65.1924 140.916 63.255 138.118 62.7864L139.933 56.476C139.894 56.312 144.572 39.2912 149.999 36.5468ZM103.161 185.826L103.311 185.358L104.456 181.369L107.826 180.578L105.506 185.103L105.273 185.59L105.041 186.078L100.695 194.539L103.01 186.294L103.161 185.826ZM143.754 186.601L149.506 185.251L152.624 198.538L146.871 199.888L143.754 186.601ZM156.822 183.534L159.617 182.879L162.734 196.166L159.939 196.822L156.822 183.534ZM163.726 181.915L217.071 169.399L220.188 182.686L166.844 195.202L163.726 181.915Z" fill="white"/>
<path d="M203.187 200.781C203.187 200.781 215.935 208.174 218.89 211.895C213.936 210.374 209.372 211.618 209.372 211.618C217.039 215.098 220.857 229.52 220.857 229.52C216.756 227.194 208.02 228.032 208.02 228.032C213.831 240.601 207.673 253.903 207.227 254.958C206.479 252.884 205.516 250.255 203.55 248.898C201.077 247.229 198.037 246.471 195.23 245.225C192.24 243.936 188.805 242.233 186.792 239.936C184.919 237.866 183.481 235.434 182.309 233.026C180.423 229.055 179.176 224.847 178.441 220.606C178.326 220.114 178.273 219.521 178.157 219.028C173.502 223.582 168.86 230.037 168.86 230.037C168.459 217.236 177.48 206.899 177.48 206.899C177.48 206.899 151.409 222.189 167.995 256.289C167.995 256.289 167.833 245.249 173.011 235.9C173.011 235.9 171.989 254.832 185.634 259.766C199.279 264.698 199.032 264.756 203.115 275.135C207.198 285.514 213.387 287.869 213.387 287.869C213.387 287.869 208.513 277.071 215.44 267.051C222.286 257.051 222.1 242.21 216.341 234.301C216.341 234.301 224.089 235.165 227.229 241.525C227.229 241.525 229.203 225.918 219.2 215.803C219.2 215.803 225.696 215.404 229.918 217.875C229.57 217.87 224.625 204.924 203.187 200.781ZM203.611 268.009C203.669 268.255 203.688 268.337 203.688 268.337C203.688 268.337 203.669 268.255 203.529 268.029C203.389 267.801 203.23 267.492 202.97 267.121C202.448 266.378 201.603 265.365 200.512 264.409C199.967 263.932 199.237 263.411 198.508 262.889C197.779 262.368 196.904 261.967 196.01 261.485C195.116 261.002 194.078 260.64 193.121 260.258C192.633 260.027 192.082 259.896 191.594 259.665C191.125 259.516 190.556 259.303 190.004 259.173C188.966 258.81 187.844 258.467 186.704 258.043C185.564 257.618 184.569 257.073 183.574 256.527C183.067 256.214 182.661 255.963 182.216 255.548C181.994 255.34 181.874 255.196 181.671 255.07C181.449 254.863 181.328 254.718 181.106 254.51C180.42 253.806 179.919 253.145 179.498 252.464C178.576 251.123 178.123 249.931 177.83 249.048C177.536 248.165 177.503 247.654 177.503 247.654C177.503 247.654 177.782 248.107 178.304 248.85C178.824 249.593 179.588 250.626 180.698 251.664C181.263 252.224 181.828 252.783 182.557 253.305C182.76 253.43 182.881 253.575 183.084 253.7C183.286 253.826 183.509 254.033 183.692 254.077C184.098 254.328 184.422 254.598 184.89 254.748C185.784 255.23 186.721 255.529 187.76 255.891C188.8 256.254 189.92 256.596 191.041 256.939C191.611 257.151 192.162 257.282 192.733 257.494C193.303 257.706 193.79 257.938 194.361 258.15C195.419 258.594 196.414 259.14 197.409 259.685C199.235 260.814 200.752 262.103 201.838 263.405C202.822 264.646 203.377 265.901 203.671 266.783C203.558 267.415 203.554 267.763 203.611 268.009Z" fill="white"/>
<path d="M174.242 136.177C185.584 133.516 192.635 122.169 189.979 110.85C187.323 99.5308 175.962 92.5041 164.62 95.1651C153.277 97.8265 146.226 109.173 148.882 120.492C151.538 131.812 162.899 138.839 174.242 136.177ZM164.812 95.9854C175.661 93.4399 186.617 100.216 189.157 111.043C191.697 121.87 184.899 132.811 174.049 135.357C163.199 137.902 152.244 131.127 149.704 120.3C147.163 109.472 153.88 98.5503 164.812 95.9854Z" fill="white"/>
<path d="M173.126 131.42C181.838 129.376 187.251 120.663 185.211 111.969C183.171 103.274 174.448 97.8783 165.736 99.9225C157.022 101.967 151.609 110.679 153.649 119.374C155.689 128.068 164.412 133.464 173.126 131.42ZM157.631 107.882C157.737 107.597 157.907 107.211 158.241 106.787C158.474 106.3 158.87 105.774 159.431 105.21C159.91 104.664 160.534 103.999 161.362 103.458C162.087 102.855 162.997 102.296 164.027 101.881C164.5 101.684 165.139 101.447 165.613 101.249C166.188 101.114 166.763 100.979 167.422 100.825C168.016 100.772 168.673 100.618 169.287 100.647C169.636 100.652 169.901 100.676 170.23 100.599C170.578 100.604 170.844 100.628 171.212 100.715C171.825 100.744 172.478 100.937 173.111 101.048C173.763 101.241 174.415 101.434 174.985 101.647C176.227 102.134 177.343 102.824 178.396 103.616C179.366 104.427 180.356 105.319 181.036 106.371C181.177 106.598 181.418 106.887 181.558 107.114C181.697 107.341 181.857 107.65 181.997 107.877C182.296 108.412 182.494 108.885 182.711 109.44C182.908 109.913 183.043 110.487 183.26 111.042C183.376 111.534 183.472 111.944 183.504 112.456C183.654 113.459 183.682 114.318 183.69 115.095C183.699 115.872 183.505 116.523 183.456 117.054C183.194 118.154 182.962 118.641 182.962 118.641C182.962 118.641 182.923 118.477 182.947 118.211C182.972 117.946 182.876 117.536 182.843 117.024C182.809 116.513 182.674 115.939 182.584 115.181C182.43 114.525 182.237 113.705 181.981 112.986C181.803 112.595 181.688 112.103 181.427 111.732C181.166 111.36 181.07 110.95 180.809 110.578C180.55 110.207 180.351 109.734 180.009 109.382C179.868 109.155 179.748 109.01 179.526 108.803C179.386 108.576 179.183 108.45 179.043 108.224C178.338 107.437 177.571 106.752 176.739 106.168C176.334 105.917 175.827 105.603 175.421 105.352C174.933 105.12 174.446 104.889 173.958 104.657C173 104.276 171.962 103.914 170.898 103.817C169.898 103.619 168.772 103.624 167.83 103.672C167.317 103.705 166.823 103.821 166.393 103.836C165.818 103.971 165.407 104.067 164.996 104.163C164.092 104.376 163.227 104.752 162.442 105.109C160.876 105.822 159.695 106.705 158.989 107.39C158.636 107.733 158.264 107.993 158.055 108.215C157.847 108.437 157.785 108.538 157.785 108.538C157.785 108.538 157.524 108.167 157.631 107.882Z" fill="white"/>
<path d="M165.37 98.3641C165.698 98.2871 165.888 97.983 165.811 97.6549C165.734 97.3268 165.429 97.1387 165.101 97.2157C164.772 97.2929 164.583 97.5968 164.66 97.9249C164.737 98.253 165.041 98.4413 165.37 98.3641Z" fill="white"/>
<path d="M187.483 112.041C187.812 111.964 188.001 111.66 187.924 111.332C187.847 111.004 187.543 110.816 187.214 110.893C186.885 110.97 186.697 111.274 186.774 111.602C186.851 111.93 187.155 112.118 187.483 112.041Z" fill="white"/>
<path d="M173.491 132.978C173.162 133.055 172.974 133.36 173.051 133.688C173.128 134.016 173.432 134.204 173.761 134.127C174.089 134.05 174.279 133.746 174.202 133.418C174.042 133.109 173.738 132.92 173.491 132.978Z" fill="white"/>
<path d="M151.378 119.301C151.049 119.378 150.86 119.682 150.937 120.01C151.014 120.338 151.318 120.527 151.647 120.449C151.975 120.372 152.165 120.068 152.088 119.74C152.011 119.412 151.706 119.224 151.378 119.301Z" fill="white"/>
<path d="M171.886 98.0469C172.152 98.071 172.461 97.9119 172.549 97.5452C172.573 97.2799 172.414 96.971 172.047 96.8841C171.781 96.8599 171.471 97.0191 171.384 97.3858C171.379 97.7331 171.62 98.0226 171.886 98.0469Z" fill="white"/>
<path d="M187.086 118.106C187.061 118.371 187.22 118.68 187.587 118.767C187.854 118.791 188.162 118.632 188.25 118.265C188.274 118 188.115 117.691 187.748 117.604C187.4 117.599 187.11 117.841 187.086 118.106Z" fill="white"/>
<path d="M166.975 133.296C166.709 133.271 166.399 133.431 166.312 133.797C166.288 134.063 166.446 134.371 166.814 134.459C167.08 134.483 167.389 134.324 167.477 133.957C167.482 133.609 167.24 133.32 166.975 133.296Z" fill="white"/>
<path d="M151.776 113.236C151.8 112.971 151.641 112.662 151.274 112.575C151.008 112.551 150.698 112.71 150.611 113.077C150.587 113.342 150.745 113.651 151.113 113.738C151.46 113.743 151.669 113.521 151.776 113.236Z" fill="white"/>
<path d="M178.921 99.9443C179.028 99.6596 178.951 99.3315 178.748 99.2061C178.463 99.0998 178.134 99.177 178.009 99.3794C177.902 99.6641 177.979 99.9922 178.182 100.118C178.385 100.243 178.733 100.248 178.921 99.9443Z" fill="white"/>
<path d="M185.005 124.392C184.898 124.677 184.975 125.005 185.178 125.13C185.463 125.237 185.792 125.16 185.918 124.957C186.025 124.672 185.948 124.344 185.745 124.219C185.441 124.03 185.111 124.108 185.005 124.392Z" fill="white"/>
<path d="M159.939 131.398C159.832 131.683 159.909 132.011 160.112 132.136C160.397 132.243 160.726 132.165 160.852 131.963C160.958 131.678 160.881 131.35 160.679 131.225C160.476 131.099 160.065 131.195 159.939 131.398Z" fill="white"/>
<path d="M153.875 107.032C153.982 106.748 153.905 106.419 153.702 106.294C153.417 106.188 153.088 106.265 152.962 106.468C152.836 106.67 152.932 107.08 153.135 107.206C153.338 107.331 153.667 107.254 153.875 107.032Z" fill="white"/>
<path d="M184.234 104.842C184.442 104.62 184.529 104.254 184.307 104.046C184.085 103.839 183.718 103.752 183.509 103.974C183.301 104.196 183.214 104.562 183.436 104.77C183.658 104.977 184.007 104.982 184.234 104.842Z" fill="white"/>
<path d="M180.441 129.703C180.232 129.925 180.145 130.292 180.367 130.5C180.589 130.707 180.957 130.794 181.165 130.572C181.373 130.35 181.46 129.984 181.238 129.776C181.016 129.569 180.649 129.482 180.441 129.703Z" fill="white"/>
<path d="M154.564 126.602C154.357 126.823 154.269 127.19 154.491 127.397C154.713 127.605 155.08 127.692 155.288 127.47C155.497 127.248 155.584 126.881 155.362 126.674C155.222 126.447 154.855 126.36 154.564 126.602Z" fill="white"/>
<path d="M158.44 101.721C158.648 101.499 158.735 101.132 158.513 100.925C158.291 100.717 157.923 100.631 157.715 100.852C157.507 101.074 157.42 101.441 157.642 101.648C157.864 101.856 158.212 101.861 158.44 101.721Z" fill="white"/>
<path d="M152.763 67.9177C153.091 67.8407 153.281 67.5367 153.204 67.2086C153.127 66.8804 152.822 66.6924 152.494 66.7694C152.165 66.8466 151.976 67.1504 152.053 67.4786C152.13 67.8067 152.434 67.9949 152.763 67.9177Z" fill="white"/>
<path d="M158.734 67.1228C159.063 67.0456 159.251 66.7416 159.174 66.4136C159.097 66.0855 158.793 65.8971 158.464 65.9743C158.135 66.0516 157.947 66.3555 158.024 66.6836C158.182 66.9925 158.487 67.1806 158.734 67.1228Z" fill="white"/>
<path d="M164.517 65.16C164.845 65.083 165.035 64.779 164.958 64.4509C164.881 64.1227 164.576 63.9347 164.248 64.0117C163.919 64.0889 163.73 64.3927 163.807 64.7209C163.884 65.049 164.188 65.2372 164.517 65.16Z" fill="white"/>
<path d="M169.938 62.7631C170.267 62.6859 170.456 62.3821 170.379 62.054C170.302 61.7259 169.998 61.5376 169.669 61.6148C169.34 61.692 169.151 61.9959 169.228 62.324C169.305 62.6521 169.609 62.8403 169.938 62.7631Z" fill="white"/>
</g>
<defs>
<clipPath id="clip0_21_127">
<rect width="309" height="261" fill="white" transform="translate(0.275879 70.7232) rotate(-13.204)"/>
</clipPath>
</defs>
</svg>
