<svg width="418" height="432" viewBox="0 0 418 432" fill="none" xmlns="http://www.w3.org/2000/svg">
<g clip-path="url(#clip0_21_177)">
<path d="M206.702 148.919L170.331 83.3469C159.298 63.457 129.059 70.5812 128.768 70.6587L128.705 70.6941L128.641 70.7295C128.42 70.9358 106.367 92.8165 117.4 112.706L153.629 178.023L89.6885 299.656L89.5676 299.89L116.177 327.668L203.29 267.854L220.622 299.101L224.649 296.867L230.77 307.902L248.158 298.257C249.83 299.764 251.6 301.299 253.534 302.827C254.722 303.762 256.201 303.865 257.479 303.156C258.758 302.447 259.48 301.039 259.288 299.636C259.015 297.186 258.651 294.871 258.258 292.655L275.773 282.94L269.652 271.905L273.68 269.671L256.384 238.488L352.893 196.367L343.415 159.086L206.702 148.919ZM256.064 237.91L255.993 237.783L287.646 224.168L256.064 237.91ZM255.745 238.843L272.685 269.383L269.296 271.263L254.785 279.312C248.381 261.888 237.586 252.523 230.674 248.05C229.529 247.343 228.151 247.268 227 247.906C225.849 248.545 225.118 249.789 225.177 251.099C225.247 257.857 226.77 268.59 233.574 280.254C228.771 273.102 224.877 265.781 220.492 257.725L205.639 232.907C205.639 232.907 197.582 234.356 188.54 223.178C179.562 211.965 184.611 199.516 184.611 199.516L174.945 183.146C179.073 181.696 183.733 179.699 188.528 177.04C194.6 173.671 200.985 169.207 206.814 163.289C206.942 163.218 206.97 163.118 207.098 163.046C207.226 162.976 207.254 162.876 207.382 162.806C207.822 162.393 208.163 161.952 208.603 161.541C209.279 162.76 209.955 163.979 210.667 165.262C213.016 169.497 215.358 173.568 217.564 177.546C222.077 185.53 226.333 192.902 230.02 199.247C233.706 205.592 236.788 210.847 238.98 214.497C240.076 216.322 240.959 217.763 241.528 218.789C242.161 219.78 242.446 220.293 242.446 220.293C242.446 220.293 242.161 219.78 241.656 218.718C241.087 217.692 240.367 216.244 239.363 214.284C237.363 210.528 234.602 205.096 231.171 198.609C227.739 192.122 223.739 184.608 219.354 176.553C217.148 172.575 214.898 168.369 212.585 164.199C212.3 163.685 212.016 163.172 211.766 162.723L211.831 162.687C212.086 162.545 212.171 162.246 212.029 161.99C211.886 161.733 211.588 161.647 211.333 161.789L211.268 161.825C210.912 161.183 210.521 160.477 210.165 159.836C210.506 159.395 210.91 158.918 211.351 158.507L250.747 229.532L255.41 237.938L255.517 238.13L255.695 238.451L255.873 238.772L255.745 238.843ZM274.814 282.717L272.449 284.029L267.146 274.47L264.078 276.171L269.381 285.731L258.257 291.901C257.444 287.57 256.353 283.645 255.049 280.088L269.049 272.323L274.814 282.717ZM254.067 302.28C252.268 300.845 250.533 299.374 248.897 297.932C248.762 297.839 248.726 297.775 248.591 297.682C248.455 297.589 248.42 297.526 248.285 297.432C245.042 294.449 242.289 291.445 239.899 288.492C239.827 288.363 239.728 288.335 239.657 288.207C239.585 288.078 239.486 288.05 239.415 287.921C228.096 273.393 225.874 259.439 225.738 251.208C225.723 250.125 226.269 249.151 227.229 248.619C227.356 248.548 227.548 248.442 227.711 248.435C227.115 249.018 226.384 250.262 226.806 252.378C227.511 255.761 229.722 271.652 241.517 285.832C241.723 286.054 241.83 286.246 242 286.403C242.072 286.532 242.171 286.56 242.242 286.689C242.313 286.818 242.413 286.846 242.484 286.974C245.807 291.005 248.396 294.015 250.423 296.163C250.494 296.29 250.594 296.32 250.665 296.448C250.736 296.576 250.836 296.605 250.907 296.733C254.926 300.965 256.895 301.802 258.514 300.652C258.387 301.478 257.862 302.188 257.095 302.613C256.199 303.11 254.984 303.029 254.067 302.28ZM240.934 301.51L235.631 291.95L233.905 292.907L239.208 302.467L238.121 303.07L232.818 293.51L228.216 296.063L233.518 305.623L231.153 306.935L225.352 296.477L239.352 288.712C241.742 291.665 244.531 294.732 247.674 297.688L240.898 301.446L240.934 301.51ZM90.5127 299.785L107.035 268.387L126.751 279.517L100.355 307.583L91.8857 301.205L90.5127 299.785ZM127.562 73.0056C124.071 78.4661 115.131 94.7515 121.001 109.702C122.72 109.336 124.795 108.856 127.252 108.164C121.014 93.7535 126.947 76.1158 128.5 71.9823C128.748 71.6769 128.904 71.5061 129.032 71.4352C130.879 70.9982 159.036 64.9448 169.585 83.509C168.995 84.2556 168.37 84.9377 167.746 85.6197C167.639 85.4273 167.497 85.1706 167.39 84.9781C166.757 83.987 166.472 83.4737 166.472 83.4737C166.472 83.4737 166.757 83.987 167.262 85.0489C167.369 85.2414 167.511 85.4981 167.618 85.6906C147.832 107.74 120.732 111.781 117.833 112.131C109.028 95.9553 122.756 78.3562 127.562 73.0056ZM290.956 182.815L292.126 155.988L294.919 156.201L293.748 182.273L290.956 182.815ZM286.839 155.649L285.571 183.957L236.908 193.581L209.3 153.603L207.129 149.689L287.855 155.672L286.839 155.649ZM205.814 148.824L206.028 149.21L206.241 149.595L210.761 157.743C210.356 158.219 210.015 158.66 209.638 159.037C208.215 156.47 206.791 153.904 205.332 151.273C204.976 150.632 204.656 150.054 204.3 149.413C204.229 149.285 204.158 149.156 204.087 149.028C204.015 148.899 203.944 148.772 203.873 148.643C201.987 145.242 200.101 141.842 198.25 138.505C195.901 134.271 193.56 130.2 191.353 126.222C189.083 122.279 186.912 118.366 184.82 114.744C182.727 111.122 180.741 107.693 178.898 104.52C175.211 98.1753 172.129 92.9207 169.937 89.2703C169.197 88.0866 168.664 87.1242 168.165 86.2259C168.79 85.5439 169.414 84.8618 170.004 84.1152L205.878 148.789L205.814 148.824ZM153.991 177.318L118.26 112.901C118.942 112.774 120.342 112.585 122.225 112.212C124.161 116.004 142.627 152.159 149.61 164.898C150.82 167.079 152.777 170.608 155.233 175.035C155.304 175.164 155.375 175.292 155.446 175.42C155.517 175.548 155.589 175.677 155.66 175.805C157.048 178.307 158.578 181.066 160.215 184.018C161.061 183.885 162.098 183.644 163.235 183.434C163.362 183.363 163.462 183.391 163.59 183.32C163.718 183.249 163.818 183.279 163.945 183.208C166.539 182.607 169.742 181.753 173.351 180.423L162.904 162.642C162.904 162.642 156.621 162.016 149.158 153.234C141.696 144.453 142.572 130.962 142.572 130.962C140.637 128.679 130.078 112.806 128.534 110.474C133.705 108.948 140.376 106.506 147.28 102.677C154.248 98.8117 161.513 93.5235 168.038 86.2968C168.5 87.1308 169.006 88.1928 169.647 89.3477C171.647 93.1045 174.408 98.5366 177.839 105.023C179.555 108.267 181.413 111.767 183.378 115.46C185.342 119.152 187.513 123.066 189.656 127.079C191.863 131.057 194.111 135.264 196.424 139.434C198.061 142.386 199.699 145.337 201.336 148.288C201.407 148.417 201.478 148.545 201.549 148.673C201.62 148.802 201.692 148.93 201.763 149.059C202.332 150.085 202.901 151.111 203.507 152.203C205.072 155.025 206.603 157.784 208.169 160.607C207.765 161.083 207.388 161.46 206.948 161.872C206.856 162.007 206.792 162.042 206.664 162.113C206.536 162.184 206.507 162.283 206.379 162.354C191.839 177.132 174.214 182.881 165.041 185.032C164.913 185.103 164.814 185.075 164.686 185.146C164.559 185.216 164.458 185.188 164.331 185.259C161.575 185.865 159.719 186.138 159.101 186.23L154.475 177.889L154.261 177.504L154.119 177.247L153.991 177.318ZM246.436 264.561C247.276 265.774 248.087 267.086 248.899 268.397C248.123 267.15 247.311 265.838 246.436 264.561ZM154.419 179.597L175.284 227.762L141.319 263.885L116.634 249.974L116.151 250.913L153.992 178.828L154.419 179.597ZM114.094 254.739L137.472 267.949L135.469 270.066L112.732 257.256L114.094 254.739ZM202.962 267.113L203.034 267.241L174.271 286.971L202.962 267.113ZM203.993 267.464L203.815 267.144L203.637 266.823L159.436 187.135C159.891 187.05 160.673 186.952 161.646 186.748C162.038 187.454 162.429 188.16 162.82 188.865C162.685 188.772 162.486 188.715 162.294 188.821C162.039 188.963 161.954 189.262 162.096 189.519C162.239 189.775 162.537 189.862 162.793 189.72C162.985 189.614 163.041 189.414 163.034 189.25C176.237 213.054 193.932 245.106 197.619 251.451C199.248 254.238 202.075 259.635 205.292 265.737C205.364 265.865 205.399 265.929 205.47 266.058C205.542 266.186 205.577 266.25 205.648 266.379C212.474 279.288 220.611 295.163 221.899 297.637L221.004 298.133L203.993 267.464ZM344.294 172.275L306.509 179.81L307.505 157.191L342.889 159.797L343.368 161.714L344.294 172.275Z" fill="white"/>
<path d="M265.278 299.585C265.278 299.585 276.203 302.251 279.112 304.329C275.146 304.264 272.021 306.165 272.021 306.165C278.346 307.019 284.083 316.758 284.083 316.758C280.643 315.981 274.235 318.444 274.235 318.444C281.1 326.3 279.198 337.339 279.07 338.164C278.16 336.824 276.872 335.104 275.045 334.524C272.884 333.793 270.433 333.894 268.13 333.661C265.628 333.371 262.757 332.866 260.801 331.601C259.016 330.494 257.445 329.017 256.101 327.497C253.895 325.028 252.166 322.212 250.728 319.318C250.55 318.997 250.4 318.576 250.223 318.256C247.661 322.529 245.556 328.228 245.556 328.228C242.69 318.994 247.251 309.584 247.251 309.584C247.251 309.584 231.028 326.302 250.141 347.498C250.141 347.498 247.79 339.489 249.701 331.633C249.701 331.633 252.777 345.617 263.842 346.276C274.971 346.899 274.715 347.041 279.859 353.752C285.003 360.463 289.999 360.881 289.999 360.881C289.999 360.881 284.23 354.096 287.313 345.339C290.397 336.581 287.267 325.815 281.372 321.366C281.372 321.366 287.319 320.333 290.897 324.22C290.897 324.22 289.196 312.412 279.796 307.221C279.796 307.221 284.535 305.516 288.145 306.45C288.337 306.343 281.977 298.041 265.278 299.585ZM279.193 348.332C279.265 348.46 279.336 348.589 279.336 348.589C279.336 348.589 279.3 348.524 279.13 348.367C278.994 348.275 278.788 348.054 278.518 347.868C278.006 347.396 277.23 346.904 276.128 346.424C275.596 346.216 274.963 345.98 274.331 345.744C273.634 345.542 272.972 345.406 272.212 345.241C271.451 345.075 270.598 345.045 269.81 344.978C269.383 344.963 269.021 344.913 268.531 344.933C268.105 344.918 267.678 344.903 267.252 344.888C266.399 344.858 265.481 344.862 264.593 344.768C263.705 344.673 262.817 344.579 262.021 344.349C261.622 344.234 261.225 344.12 260.855 343.905C260.656 343.848 260.521 343.755 260.386 343.662C260.251 343.569 260.052 343.512 259.881 343.355C259.276 343.019 258.701 342.583 258.259 342.24C257.343 341.491 256.716 340.663 256.396 340.086C256.012 339.544 255.898 339.188 255.898 339.188C255.898 339.188 256.204 339.438 256.715 339.909C257.292 340.344 258.038 340.937 259.076 341.452C259.581 341.759 260.15 342.031 260.783 342.267C260.918 342.36 261.081 342.354 261.216 342.446C261.415 342.504 261.55 342.597 261.749 342.654C262.048 342.74 262.446 342.855 262.809 342.905C263.569 343.071 264.357 343.137 265.146 343.203C265.999 343.233 266.852 343.264 267.769 343.259C268.195 343.273 268.621 343.289 269.148 343.333C269.574 343.348 270.036 343.427 270.462 343.442C271.35 343.537 272.211 343.731 272.971 343.896C274.528 344.292 275.964 344.921 276.946 345.636C277.991 346.314 278.617 347.142 278.937 347.719C278.98 347.947 279.087 348.139 279.193 348.332Z" fill="white"/>
<path d="M134.384 112.431C134.639 112.289 134.725 111.99 134.583 111.733C134.44 111.477 134.141 111.391 133.886 111.533C133.63 111.675 133.545 111.973 133.687 112.23C133.83 112.487 134.128 112.573 134.384 112.431Z" fill="white"/>
<path d="M138.859 110.704C139.115 110.562 139.2 110.263 139.058 110.006C138.915 109.75 138.617 109.663 138.361 109.806C138.106 109.947 138.021 110.246 138.163 110.503C138.305 110.759 138.668 110.81 138.859 110.704Z" fill="white"/>
<path d="M143.547 108.607C143.795 108.469 143.884 108.157 143.746 107.909C143.608 107.661 143.297 107.571 143.049 107.708C142.802 107.845 142.714 108.157 142.851 108.405C142.989 108.654 143.301 108.744 143.547 108.607Z" fill="white"/>
<path d="M148.464 106.467C148.71 106.33 148.799 106.018 148.661 105.77C148.524 105.522 148.212 105.432 147.965 105.569C147.718 105.706 147.629 106.018 147.767 106.266C147.904 106.514 148.216 106.604 148.464 106.467Z" fill="white"/>
<path d="M160.884 97.8158C161.132 97.6785 161.22 97.3664 161.083 97.1183C160.945 96.8703 160.633 96.7802 160.386 96.9175C160.139 97.0543 160.051 97.3665 160.188 97.6145C160.326 97.8626 160.638 97.9525 160.884 97.8158Z" fill="white"/>
<path d="M164.783 94.8979C165.031 94.7607 165.119 94.4485 164.982 94.2005C164.844 93.9524 164.532 93.8624 164.285 93.9997C164.038 94.1365 163.949 94.4491 164.086 94.6972C164.224 94.9452 164.537 95.0347 164.783 94.8979Z" fill="white"/>
<path d="M167.907 91.4873C168.154 91.35 168.243 91.0378 168.106 90.7898C167.968 90.5418 167.656 90.4517 167.409 90.589C167.162 90.7258 167.073 91.0385 167.21 91.2865C167.348 91.5345 167.66 91.624 167.907 91.4873Z" fill="white"/>
<path d="M170.42 88.3316C170.667 88.1943 170.756 87.8822 170.618 87.6341C170.481 87.3861 170.169 87.296 169.921 87.4333C169.675 87.5701 169.586 87.8823 169.724 88.1303C169.861 88.3784 170.173 88.4684 170.42 88.3316Z" fill="white"/>
<path d="M121.517 115.457C121.764 115.32 121.853 115.008 121.715 114.759C121.578 114.511 121.266 114.421 121.019 114.559C120.772 114.695 120.683 115.008 120.821 115.256C120.958 115.504 121.27 115.594 121.517 115.457Z" fill="white"/>
<path d="M157.014 100.634C157.262 100.496 157.35 100.184 157.213 99.9361C157.075 99.688 156.763 99.598 156.516 99.7353C156.269 99.8726 156.18 100.185 156.317 100.433C156.455 100.681 156.767 100.771 157.014 100.634Z" fill="white"/>
<path d="M152.753 103.501C153.008 103.359 153.094 103.06 152.952 102.803C152.809 102.546 152.51 102.461 152.255 102.602C151.999 102.744 151.914 103.043 152.056 103.3C152.199 103.556 152.497 103.643 152.753 103.501Z" fill="white"/>
<path d="M180.035 184.938C180.292 184.796 180.376 184.498 180.234 184.241C180.092 183.984 179.793 183.897 179.537 184.039C179.281 184.181 179.197 184.48 179.339 184.737C179.482 184.994 179.844 185.045 180.035 184.938Z" fill="white"/>
<path d="M184.723 182.841C184.98 182.699 185.065 182.4 184.922 182.143C184.78 181.887 184.482 181.801 184.225 181.943C183.97 182.085 183.885 182.383 184.027 182.639C184.17 182.897 184.468 182.983 184.723 182.841Z" fill="white"/>
<path d="M189.639 180.701C189.886 180.564 189.975 180.252 189.837 180.004C189.7 179.756 189.388 179.666 189.141 179.803C188.894 179.94 188.805 180.252 188.943 180.501C189.08 180.748 189.392 180.838 189.639 180.701Z" fill="white"/>
<path d="M202.06 172.05C202.308 171.913 202.397 171.601 202.259 171.352C202.121 171.104 201.809 171.014 201.562 171.151C201.315 171.288 201.226 171.6 201.364 171.849C201.502 172.097 201.814 172.187 202.06 172.05Z" fill="white"/>
<path d="M205.959 169.132C206.207 168.995 206.295 168.682 206.158 168.435C206.02 168.187 205.708 168.096 205.461 168.234C205.214 168.371 205.125 168.683 205.263 168.932C205.4 169.179 205.713 169.269 205.959 169.132Z" fill="white"/>
<path d="M208.585 164.823C208.521 164.859 208.521 164.859 208.457 164.894C208.301 165.064 208.244 165.264 208.351 165.457C208.457 165.649 208.693 165.77 208.884 165.664C208.948 165.628 208.948 165.628 209.012 165.593C209.268 165.451 209.353 165.152 209.211 164.896C209.139 164.767 208.841 164.681 208.585 164.823Z" fill="white"/>
<path d="M198.19 174.868C198.438 174.731 198.527 174.419 198.389 174.17C198.251 173.922 197.939 173.832 197.692 173.969C197.444 174.106 197.356 174.419 197.493 174.667C197.631 174.915 197.943 175.005 198.19 174.868Z" fill="white"/>
<path d="M193.929 177.735C194.185 177.593 194.27 177.294 194.128 177.037C193.985 176.781 193.686 176.695 193.431 176.837C193.175 176.979 193.09 177.278 193.232 177.534C193.375 177.791 193.673 177.877 193.929 177.735Z" fill="white"/>
<path d="M184.136 128.883C178.691 119.066 166.251 115.478 156.471 120.903C146.69 126.329 143.148 138.781 148.593 148.597C154.038 158.414 166.477 162.002 176.258 156.577C186.039 151.152 189.581 138.699 184.136 128.883ZM149.297 148.207C144.029 138.712 147.43 126.757 156.891 121.51C166.352 116.262 178.293 119.706 183.56 129.202C188.828 138.698 185.427 150.652 175.966 155.9C166.505 161.148 154.564 157.703 149.297 148.207Z" fill="white"/>
<path d="M179.98 131.188C175.781 123.617 166.328 120.89 158.784 125.074C151.241 129.258 148.549 138.722 152.748 146.293C156.948 153.864 166.402 156.59 173.945 152.406C181.524 148.286 184.18 138.759 179.98 131.188ZM158.894 129.04C158.127 129.466 157.431 130.019 156.799 130.538C155.57 131.639 154.705 132.79 154.151 133.601C153.875 134.006 153.661 134.376 153.541 134.61C153.421 134.845 153.329 134.98 153.329 134.98C153.329 134.98 153.321 134.816 153.342 134.553C153.363 134.29 153.476 133.891 153.618 133.393C153.759 132.895 153.93 132.297 154.292 131.593C154.59 130.924 155.015 130.185 155.541 129.474C156.066 128.763 156.782 127.946 157.607 127.321C157.983 126.944 158.558 126.626 158.906 126.349C159.418 126.065 159.929 125.781 160.44 125.498C160.987 125.278 161.499 124.995 162.081 124.839C162.372 124.762 162.664 124.684 162.955 124.606C163.246 124.529 163.573 124.515 163.864 124.438C164.447 124.282 165.101 124.255 165.755 124.228C166.409 124.201 166.998 124.209 167.659 124.346C168.91 124.491 170.168 124.8 171.334 125.244C172.5 125.688 173.609 126.332 174.526 127.082C174.797 127.267 174.968 127.424 175.238 127.61C175.444 127.831 175.65 128.052 175.821 128.209C176.197 128.588 176.546 129.066 176.924 129.443C177.237 129.857 177.521 130.37 177.834 130.784C178.083 131.233 178.233 131.654 178.447 132.039C178.845 132.908 179.108 133.685 179.273 134.433C179.437 135.181 179.53 135.8 179.551 136.292C179.631 137.339 179.525 137.901 179.525 137.901C179.525 137.901 179.453 137.773 179.375 137.481C179.296 137.189 179.182 136.832 178.998 136.347C178.812 135.863 178.592 135.314 178.271 134.737C177.951 134.159 177.56 133.453 177.076 132.883C176.798 132.534 176.52 132.184 176.243 131.835C175.902 131.52 175.66 131.235 175.319 130.921C174.978 130.607 174.636 130.293 174.23 130.014C174.06 129.857 173.825 129.736 173.655 129.578C173.484 129.421 173.249 129.3 173.014 129.179C172.204 128.621 171.238 128.234 170.306 127.912C169.808 127.769 169.375 127.59 168.813 127.482C168.316 127.338 167.79 127.294 167.328 127.215C166.34 127.091 165.26 127.103 164.251 127.244C163.207 127.319 162.268 127.588 161.366 127.921C160.947 128.069 160.436 128.353 160.08 128.466C159.661 128.615 159.342 128.792 158.894 129.04Z" fill="white"/>
<path d="M158.001 123.662C158.248 123.525 158.337 123.213 158.199 122.965C158.061 122.717 157.75 122.627 157.503 122.764C157.256 122.901 157.167 123.213 157.304 123.461C157.442 123.709 157.754 123.8 158.001 123.662Z" fill="white"/>
<path d="M182.147 130.573C182.395 130.436 182.483 130.124 182.346 129.876C182.208 129.628 181.896 129.538 181.649 129.675C181.402 129.812 181.313 130.124 181.45 130.372C181.588 130.62 181.901 130.71 182.147 130.573Z" fill="white"/>
<path d="M175.262 154.78C175.508 154.644 175.597 154.331 175.46 154.083C175.322 153.835 175.01 153.745 174.764 153.882C174.516 154.019 174.427 154.332 174.565 154.58C174.703 154.828 175.014 154.918 175.262 154.78Z" fill="white"/>
<path d="M150.645 146.872C150.39 147.014 150.305 147.312 150.447 147.569C150.59 147.826 150.888 147.912 151.143 147.77C151.4 147.628 151.484 147.33 151.342 147.073C151.2 146.816 150.901 146.73 150.645 146.872Z" fill="white"/>
<path d="M164.004 121.675C164.296 121.597 164.515 121.391 164.501 121.064C164.422 120.772 164.216 120.551 163.89 120.564C163.599 120.641 163.378 120.848 163.393 121.175C163.443 121.567 163.713 121.753 164.004 121.675Z" fill="white"/>
<path d="M183.389 136.428C183.468 136.721 183.674 136.942 184.001 136.928C184.292 136.85 184.512 136.645 184.497 136.317C184.419 136.025 184.213 135.804 183.886 135.817C183.594 135.895 183.375 136.101 183.389 136.428Z" fill="white"/>
<path d="M168.824 155.834C168.533 155.912 168.312 156.118 168.327 156.445C168.406 156.738 168.612 156.959 168.939 156.945C169.266 156.932 169.45 156.662 169.436 156.334C169.322 155.977 169.052 155.792 168.824 155.834Z" fill="white"/>
<path d="M149.376 141.116C149.297 140.824 149.091 140.603 148.764 140.616C148.473 140.694 148.252 140.9 148.267 141.228C148.345 141.52 148.551 141.741 148.879 141.727C149.17 141.65 149.454 141.408 149.376 141.116Z" fill="white"/>
<path d="M171.011 121.648C171.096 121.349 170.918 121.028 170.62 120.942C170.321 120.856 170.001 121.033 169.917 121.332C169.831 121.631 170.009 121.952 170.308 122.038C170.67 122.089 170.99 121.911 171.011 121.648Z" fill="white"/>
<path d="M183.146 142.772C183.061 143.071 183.239 143.392 183.537 143.478C183.836 143.564 184.156 143.387 184.24 143.088C184.326 142.789 184.148 142.468 183.849 142.382C183.487 142.331 183.231 142.473 183.146 142.772Z" fill="white"/>
<path d="M161.754 155.896C161.668 156.196 161.846 156.516 162.145 156.602C162.443 156.688 162.764 156.511 162.848 156.212C162.933 155.914 162.755 155.593 162.457 155.507C162.159 155.42 161.838 155.598 161.754 155.896Z" fill="white"/>
<path d="M149.682 134.737C149.768 134.438 149.59 134.117 149.291 134.031C148.992 133.945 148.673 134.122 148.588 134.421C148.503 134.72 148.681 135.041 148.979 135.127C149.278 135.213 149.597 135.036 149.682 134.737Z" fill="white"/>
<path d="M177.239 124.738C177.424 124.467 177.345 124.175 177.139 123.954C176.868 123.769 176.577 123.846 176.357 124.052C176.172 124.323 176.251 124.615 176.457 124.836C176.727 125.022 177.118 124.972 177.239 124.738Z" fill="white"/>
<path d="M180.309 148.96C180.124 149.231 180.203 149.523 180.409 149.744C180.68 149.929 180.971 149.852 181.191 149.646C181.376 149.375 181.297 149.083 181.091 148.862C180.821 148.676 180.493 148.69 180.309 148.96Z" fill="white"/>
<path d="M155.525 152.807C155.341 153.077 155.42 153.369 155.626 153.59C155.896 153.776 156.188 153.698 156.408 153.492C156.592 153.222 156.513 152.93 156.307 152.709C156.037 152.523 155.71 152.537 155.525 152.807Z" fill="white"/>
<path d="M152.519 128.549C152.704 128.279 152.625 127.987 152.419 127.765C152.149 127.58 151.858 127.657 151.637 127.863C151.453 128.133 151.532 128.425 151.738 128.647C151.944 128.868 152.334 128.819 152.519 128.549Z" fill="white"/>
<path d="M195.441 191.16C185.66 196.585 182.118 209.037 187.563 218.854C193.008 228.67 205.447 232.259 215.228 226.833C225.008 221.409 228.55 208.955 223.106 199.139C217.66 189.322 205.221 185.735 195.441 191.16ZM214.837 226.128C205.376 231.376 193.434 227.931 188.167 218.435C182.9 208.939 186.3 196.985 195.761 191.737C205.222 186.489 217.164 189.934 222.431 199.429C227.698 208.925 224.298 220.88 214.837 226.128Z" fill="white"/>
<path d="M197.754 195.33C190.211 199.514 187.518 208.978 191.718 216.549C195.917 224.12 205.372 226.847 212.915 222.663C220.458 218.479 223.149 209.015 218.95 201.444C214.751 193.873 205.297 191.146 197.754 195.33ZM213.589 197.202C213.858 197.388 214.029 197.545 214.299 197.731C214.505 197.952 214.712 198.174 214.882 198.331C215.26 198.709 215.609 199.187 215.985 199.564C216.298 199.979 216.583 200.492 216.896 200.905C217.145 201.355 217.295 201.775 217.508 202.16C217.907 203.029 218.171 203.806 218.334 204.554C218.499 205.302 218.592 205.922 218.613 206.413C218.693 207.46 218.586 208.022 218.586 208.022C218.586 208.022 218.515 207.894 218.437 207.602C218.359 207.309 218.245 206.953 218.06 206.469C217.874 205.984 217.653 205.435 217.333 204.858C217.012 204.28 216.621 203.574 216.138 203.004C215.86 202.654 215.583 202.305 215.305 201.956C214.964 201.642 214.722 201.356 214.381 201.042C214.039 200.728 213.698 200.413 213.292 200.135C213.122 199.978 212.887 199.857 212.717 199.7C212.546 199.543 212.312 199.421 212.076 199.299C211.266 198.742 210.299 198.356 209.368 198.033C208.87 197.89 208.437 197.711 207.875 197.603C207.378 197.459 206.851 197.415 206.39 197.336C205.402 197.213 204.321 197.225 203.312 197.364C202.268 197.44 201.33 197.709 200.428 198.042C200.009 198.19 199.498 198.474 199.142 198.588C198.631 198.871 198.312 199.048 197.928 199.261C197.161 199.687 196.465 200.24 195.833 200.758C194.605 201.859 193.739 203.011 193.185 203.821C192.908 204.226 192.695 204.596 192.574 204.831C192.454 205.066 192.362 205.201 192.362 205.201C192.362 205.201 192.354 205.037 192.375 204.773C192.396 204.51 192.51 204.112 192.652 203.614C192.794 203.115 192.963 202.518 193.325 201.814C193.623 201.145 194.049 200.405 194.574 199.695C195.099 198.984 195.817 198.167 196.64 197.542C197.016 197.165 197.592 196.846 197.94 196.57C198.451 196.286 198.963 196.002 199.474 195.718C200.02 195.499 200.532 195.215 201.115 195.06C201.406 194.982 201.698 194.905 201.988 194.827C202.28 194.749 202.607 194.736 202.897 194.658C203.48 194.503 204.135 194.476 204.788 194.448C205.442 194.422 206.031 194.43 206.693 194.567C207.943 194.712 209.202 195.021 210.367 195.465C211.597 195.874 212.671 196.453 213.589 197.202Z" fill="white"/>
<path d="M196.935 193.854C197.182 193.717 197.27 193.405 197.133 193.158C196.995 192.909 196.684 192.819 196.437 192.956C196.19 193.093 196.101 193.405 196.239 193.654C196.376 193.901 196.688 193.991 196.935 193.854Z" fill="white"/>
<path d="M221.117 200.829C221.364 200.692 221.453 200.38 221.316 200.132C221.178 199.884 220.866 199.794 220.619 199.931C220.372 200.068 220.282 200.381 220.42 200.629C220.557 200.876 220.87 200.966 221.117 200.829Z" fill="white"/>
<path d="M214.196 224.973C214.443 224.836 214.531 224.524 214.393 224.275C214.256 224.028 213.944 223.938 213.698 224.074C213.45 224.212 213.362 224.524 213.499 224.771C213.637 225.02 213.948 225.11 214.196 224.973Z" fill="white"/>
<path d="M189.579 217.064C189.324 217.206 189.239 217.505 189.381 217.761C189.524 218.018 189.822 218.104 190.077 217.962C190.334 217.82 190.418 217.522 190.276 217.265C190.169 217.072 189.835 216.922 189.579 217.064Z" fill="white"/>
<path d="M202.974 191.932C203.265 191.853 203.485 191.648 203.47 191.32C203.392 191.028 203.186 190.807 202.859 190.82C202.568 190.898 202.347 191.104 202.362 191.431C202.377 191.759 202.647 191.945 202.974 191.932Z" fill="white"/>
<path d="M222.359 206.685C222.438 206.977 222.644 207.198 222.97 207.185C223.262 207.107 223.482 206.901 223.467 206.573C223.389 206.282 223.182 206.06 222.856 206.074C222.528 206.087 222.344 206.358 222.359 206.685Z" fill="white"/>
<path d="M207.758 226.027C207.467 226.103 207.247 226.31 207.261 226.637C207.34 226.93 207.546 227.151 207.873 227.137C208.164 227.059 208.384 226.854 208.37 226.525C208.292 226.234 207.986 225.984 207.758 226.027Z" fill="white"/>
<path d="M188.31 211.308C188.231 211.016 188.025 210.794 187.698 210.809C187.407 210.886 187.186 211.093 187.201 211.42C187.279 211.712 187.485 211.933 187.813 211.919C188.139 211.905 188.388 211.6 188.31 211.308Z" fill="white"/>
<path d="M209.945 191.84C210.03 191.541 209.852 191.22 209.554 191.134C209.255 191.048 208.935 191.225 208.851 191.524C208.765 191.823 208.943 192.144 209.242 192.23C209.604 192.28 209.924 192.103 209.945 191.84Z" fill="white"/>
<path d="M222.08 212.964C221.995 213.263 222.173 213.584 222.471 213.67C222.77 213.756 223.089 213.578 223.174 213.28C223.26 212.981 223.082 212.66 222.783 212.574C222.421 212.523 222.165 212.665 222.08 212.964Z" fill="white"/>
<path d="M200.723 226.153C200.638 226.452 200.816 226.773 201.115 226.858C201.413 226.944 201.733 226.767 201.818 226.468C201.903 226.17 201.725 225.849 201.426 225.763C201.093 225.613 200.808 225.854 200.723 226.153Z" fill="white"/>
<path d="M188.616 204.929C188.702 204.63 188.524 204.309 188.225 204.224C187.927 204.138 187.607 204.315 187.522 204.614C187.437 204.912 187.615 205.233 187.913 205.319C188.248 205.469 188.531 205.228 188.616 204.929Z" fill="white"/>
<path d="M216.208 194.995C216.393 194.724 216.315 194.431 216.109 194.211C215.838 194.025 215.547 194.103 215.327 194.308C215.142 194.579 215.221 194.871 215.427 195.092C215.697 195.278 216.052 195.165 216.208 194.995Z" fill="white"/>
<path d="M219.243 219.153C219.058 219.422 219.137 219.715 219.343 219.936C219.614 220.122 219.905 220.044 220.125 219.838C220.31 219.568 220.231 219.276 220.025 219.054C219.819 218.833 219.428 218.882 219.243 219.153Z" fill="white"/>
<path d="M194.459 222.999C194.275 223.269 194.354 223.561 194.56 223.783C194.83 223.968 195.122 223.89 195.341 223.684C195.526 223.414 195.447 223.122 195.241 222.901C194.971 222.715 194.644 222.728 194.459 222.999Z" fill="white"/>
<path d="M191.489 198.805C191.673 198.535 191.595 198.243 191.388 198.022C191.119 197.836 190.827 197.913 190.607 198.12C190.423 198.389 190.501 198.682 190.707 198.903C190.914 199.124 191.268 199.011 191.489 198.805Z" fill="white"/>
</g>
<defs>
<clipPath id="clip0_21_177">
<rect width="292" height="332" fill="white" transform="translate(0.806152 141.636) rotate(-29.0162)"/>
</clipPath>
</defs>
</svg>
